<svg width="24" height="24" viewBox="0 0 24 24" fill="none" xmlns="http://www.w3.org/2000/svg">
<g clip-path="url(#clip0_334_962)">
<rect x="3" y="6" width="18" height="12" rx="1" stroke="black" stroke-width="2" stroke-linejoin="round"/>
<path d="M3 8L10.6713 14.8189C11.429 15.4925 12.571 15.4925 13.3287 14.8189L21 8" stroke="black" stroke-width="2"/>
<circle cx="17" cy="17" r="7" fill="black"/>
<path d="M14.444 21V19.992C14.932 19.536 15.376 19.112 15.776 18.72C16.184 18.32 16.532 17.948 16.82 17.604C17.116 17.252 17.344 16.928 17.504 16.632C17.672 16.328 17.756 16.04 17.756 15.768C17.756 15.392 17.66 15.108 17.468 14.916C17.276 14.716 17.012 14.616 16.676 14.616C16.396 14.616 16.148 14.696 15.932 14.856C15.716 15.008 15.512 15.188 15.32 15.396L14.36 14.448C14.736 14.048 15.12 13.748 15.512 13.548C15.904 13.34 16.372 13.236 16.916 13.236C17.292 13.236 17.632 13.296 17.936 13.416C18.248 13.528 18.516 13.692 18.74 13.908C18.964 14.116 19.136 14.368 19.256 14.664C19.376 14.96 19.436 15.292 19.436 15.66C19.436 15.98 19.368 16.308 19.232 16.644C19.096 16.972 18.912 17.304 18.68 17.64C18.456 17.968 18.196 18.3 17.9 18.636C17.612 18.964 17.312 19.288 17 19.608C17.192 19.584 17.404 19.564 17.636 19.548C17.876 19.524 18.088 19.512 18.272 19.512H19.808V21H14.444Z" fill="white"/>
</g>
<defs>
<clipPath id="clip0_334_962">
<rect width="24" height="24" fill="white"/>
</clipPath>
</defs>
</svg>
